<svg width="68" height="19" viewBox="0 0 68 19" fill="none" xmlns="http://www.w3.org/2000/svg">
<path d="M8.33382 0.917053L10.0787 7.01793H15.7253L11.1571 10.7885L12.902 16.8894L8.33382 13.1188L3.76561 16.8894L5.51051 10.7885L0.942304 7.01793H6.58892L8.33382 0.917053Z" fill="#FFC700"/>
<path d="M24.6178 0.917053L26.3627 7.01793H32.0093L27.4411 10.7885L29.186 16.8894L24.6178 13.1188L20.0496 16.8894L21.7945 10.7885L17.2263 7.01793H22.8729L24.6178 0.917053Z" fill="#FFC700"/>
<path d="M43.1223 0.917053L44.8672 7.01793H50.5139L45.9456 10.7885L47.6905 16.8894L43.1223 13.1188L38.5541 16.8894L40.299 10.7885L35.7308 7.01793H41.3774L43.1223 0.917053Z" fill="#FFC700"/>
<path d="M59.4063 0.917053L61.1512 7.01793H66.7978L62.2296 10.7885L63.9745 16.8894L59.4063 13.1188L54.8381 16.8894L56.583 10.7885L52.0148 7.01793H57.6614L59.4063 0.917053Z" fill="#FFC700"/>
</svg>
